<svg width="82" height="32" viewBox="0 0 82 32" fill="none" xmlns="http://www.w3.org/2000/svg">
<path d="M19.5938 19.805C19.3938 19.805 19.1038 19.65 18.7238 19.34C18.3538 19.02 18.1688 18.705 18.1688 18.395C18.1688 17.665 18.2738 16.405 18.4838 14.615C18.6938 12.825 18.7988 11.105 18.7988 9.455C18.7988 9.035 18.9288 8.825 19.1888 8.825C19.5488 8.825 19.9788 9.025 20.4788 9.425C20.9888 9.825 21.2438 10.225 21.2438 10.625C21.2438 10.765 21.0788 11.62 20.7488 13.19C20.4188 14.75 20.2288 16.005 20.1788 16.955C20.6588 15.985 21.2238 15.175 21.8738 14.525C22.5338 13.875 23.0738 13.55 23.4938 13.55C23.7938 13.55 23.9888 14.215 24.0788 15.545C24.1188 16.045 24.1988 16.505 24.3188 16.925C24.4388 17.335 24.6038 17.54 24.8138 17.54C25.2038 17.54 25.5488 17.125 25.8488 16.295C26.1588 15.455 26.3138 14.59 26.3138 13.7C26.3138 11.77 25.7838 10.805 24.7238 10.805C24.4138 10.805 24.1238 10.645 23.8538 10.325C23.5938 10.005 23.4638 9.72 23.4638 9.47C23.4638 9.02 23.7388 8.795 24.2888 8.795C25.0288 8.795 25.6738 8.935 26.2238 9.215C26.7838 9.485 27.2188 9.86 27.5288 10.34C28.1488 11.29 28.4588 12.46 28.4588 13.85C28.4588 14.79 28.2938 15.72 27.9638 16.64C27.6338 17.55 27.1738 18.305 26.5838 18.905C26.0038 19.505 25.3838 19.805 24.7238 19.805C23.5038 19.805 22.8088 18.77 22.6388 16.7L22.1738 17.36C21.0738 18.99 20.2138 19.805 19.5938 19.805ZM36.1712 14.885C36.1712 15.375 35.8362 15.815 35.1662 16.205C34.5062 16.595 33.8262 16.79 33.1262 16.79C32.4262 16.79 31.8512 16.74 31.4012 16.64C31.3112 16.91 31.2662 17.18 31.2662 17.45C31.2662 17.72 31.3112 17.915 31.4012 18.035C31.4912 18.145 31.7162 18.2 32.0762 18.2C32.8262 18.2 33.4662 18.13 33.9962 17.99C34.5362 17.85 34.8162 17.78 34.8362 17.78C35.2462 17.78 35.4512 17.915 35.4512 18.185C35.4512 18.575 35.1262 18.945 34.4762 19.295C33.8362 19.645 33.0912 19.82 32.2412 19.82C31.4012 19.82 30.7262 19.555 30.2162 19.025C29.7062 18.495 29.4512 17.87 29.4512 17.15C29.4512 16.42 29.6612 15.66 30.0812 14.87C30.5112 14.08 31.0462 13.42 31.6862 12.89C32.3262 12.35 32.9612 12.08 33.5912 12.08C34.2312 12.08 34.8212 12.395 35.3612 13.025C35.9012 13.645 36.1712 14.265 36.1712 14.885ZM34.4312 14.645C34.4312 14.545 34.3262 14.4 34.1162 14.21C33.9062 14.02 33.7062 13.925 33.5162 13.925C33.3362 13.925 33.1012 14.06 32.8112 14.33C32.5212 14.59 32.2462 14.93 31.9862 15.35C32.0762 15.36 32.2062 15.365 32.3762 15.365C33.7462 15.365 34.4312 15.125 34.4312 14.645ZM43.1504 15.56C43.3304 15.72 43.4204 15.865 43.4204 15.995C43.4204 16.125 43.3604 16.395 43.2404 16.805C43.1204 17.215 43.0404 17.535 43.0004 17.765C42.9604 17.985 42.9254 18.16 42.8954 18.29C42.8754 18.42 42.8604 18.525 42.8504 18.605C42.8404 18.675 42.8204 18.765 42.7904 18.875C42.7704 18.985 42.7504 19.075 42.7304 19.145C42.7204 19.205 42.7004 19.28 42.6704 19.37C42.6504 19.45 42.6254 19.515 42.5954 19.565C42.5654 19.605 42.5304 19.65 42.4904 19.7C42.4304 19.78 42.3304 19.82 42.1904 19.82C42.0504 19.82 41.8754 19.68 41.6654 19.4C41.4654 19.12 41.3154 18.78 41.2154 18.38C40.2754 19.34 39.4854 19.82 38.8454 19.82C38.4154 19.82 37.9504 19.585 37.4504 19.115C36.9504 18.635 36.7004 18.16 36.7004 17.69C36.7004 17.21 36.9154 16.53 37.3454 15.65C37.7754 14.77 38.3604 13.955 39.1004 13.205C39.8504 12.455 40.5904 12.08 41.3204 12.08C41.7404 12.08 42.2254 12.325 42.7754 12.815C43.3254 13.305 43.6004 13.755 43.6004 14.165C43.6004 14.565 43.4504 15.03 43.1504 15.56ZM38.7854 17.93C39.1854 17.93 39.7154 17.66 40.3754 17.12C41.0454 16.57 41.4604 15.88 41.6204 15.05C41.6304 14.93 41.7154 14.86 41.8754 14.84C41.8454 14.27 41.7504 13.985 41.5904 13.985C41.1904 13.985 40.7404 14.245 40.2404 14.765C39.7504 15.285 39.3454 15.84 39.0254 16.43C38.7154 17.02 38.5604 17.455 38.5604 17.735C38.5604 17.815 38.5704 17.87 38.5904 17.9C38.6204 17.92 38.6854 17.93 38.7854 17.93ZM49.6719 12.08C49.9319 12.08 50.1819 12.175 50.4219 12.365C50.6719 12.545 50.7969 12.735 50.7969 12.935C50.7969 13.295 50.4969 14.13 49.8969 15.44C49.3069 16.75 48.7569 17.805 48.2469 18.605C47.7469 19.405 47.3569 19.805 47.0769 19.805C46.9269 19.805 46.7069 19.705 46.4169 19.505C46.1369 19.305 45.9569 19.105 45.8769 18.905C45.6369 18.325 45.3469 17.255 45.0069 15.695C44.6669 14.125 44.4969 13.13 44.4969 12.71C44.4969 12.29 44.6369 12.08 44.9169 12.08C45.2569 12.08 45.6069 12.215 45.9669 12.485C46.5669 12.945 46.9019 13.56 46.9719 14.33C47.0019 14.69 47.0269 15.135 47.0469 15.665C47.0669 16.185 47.1119 16.635 47.1819 17.015C47.4219 16.555 47.7169 15.875 48.0669 14.975C48.4169 14.065 48.7169 13.355 48.9669 12.845C49.2269 12.335 49.4619 12.08 49.6719 12.08ZM57.47 14.885C57.47 15.375 57.135 15.815 56.465 16.205C55.805 16.595 55.125 16.79 54.425 16.79C53.725 16.79 53.15 16.74 52.7 16.64C52.61 16.91 52.565 17.18 52.565 17.45C52.565 17.72 52.61 17.915 52.7 18.035C52.79 18.145 53.015 18.2 53.375 18.2C54.125 18.2 54.765 18.13 55.295 17.99C55.835 17.85 56.115 17.78 56.135 17.78C56.545 17.78 56.75 17.915 56.75 18.185C56.75 18.575 56.425 18.945 55.775 19.295C55.135 19.645 54.39 19.82 53.54 19.82C52.7 19.82 52.025 19.555 51.515 19.025C51.005 18.495 50.75 17.87 50.75 17.15C50.75 16.42 50.96 15.66 51.38 14.87C51.81 14.08 52.345 13.42 52.985 12.89C53.625 12.35 54.26 12.08 54.89 12.08C55.53 12.08 56.12 12.395 56.66 13.025C57.2 13.645 57.47 14.265 57.47 14.885ZM55.73 14.645C55.73 14.545 55.625 14.4 55.415 14.21C55.205 14.02 55.005 13.925 54.815 13.925C54.635 13.925 54.4 14.06 54.11 14.33C53.82 14.59 53.545 14.93 53.285 15.35C53.375 15.36 53.505 15.365 53.675 15.365C55.045 15.365 55.73 15.125 55.73 14.645ZM62.8592 12.095C63.2392 12.095 63.6142 12.32 63.9842 12.77C64.3542 13.22 64.5392 13.625 64.5392 13.985C64.5392 14.225 64.4342 14.345 64.2242 14.345C64.1042 14.345 63.9292 14.3 63.6992 14.21C63.4692 14.11 63.2342 14.06 62.9942 14.06C62.7642 14.06 62.4192 14.14 61.9592 14.3C61.5092 14.46 61.2842 14.67 61.2842 14.93C61.2842 15.03 61.4192 15.175 61.6892 15.365C61.9592 15.555 62.2542 15.75 62.5742 15.95C62.8942 16.15 63.1892 16.43 63.4592 16.79C63.7292 17.14 63.8642 17.525 63.8642 17.945C63.8642 18.355 63.5592 18.77 62.9492 19.19C62.3492 19.61 61.6392 19.82 60.8192 19.82C60.0092 19.82 59.3142 19.635 58.7342 19.265C58.1542 18.895 57.8642 18.515 57.8642 18.125C57.8642 17.735 58.0242 17.54 58.3442 17.54C58.4742 17.54 58.6292 17.59 58.8092 17.69C59.3092 17.98 59.9292 18.125 60.6692 18.125C61.4192 18.125 61.7942 18.025 61.7942 17.825C61.7942 17.625 61.6492 17.405 61.3592 17.165C61.0792 16.915 60.7692 16.685 60.4292 16.475C60.0992 16.265 59.7892 16.01 59.4992 15.71C59.2192 15.4 59.0792 15.1 59.0792 14.81C59.0792 14.27 59.5692 13.685 60.5492 13.055C61.5292 12.415 62.2992 12.095 62.8592 12.095Z" fill="url(#paint0_linear_201_14)"/>
<defs>
<linearGradient id="paint0_linear_201_14" x1="22.28" y1="16" x2="59.0068" y2="16.5185" gradientUnits="userSpaceOnUse">
<stop stop-color="#684ADD"/>
<stop offset="1" stop-color="#ED4242"/>
</linearGradient>
</defs>
</svg>
